<svg xmlns="http://www.w3.org/2000/svg" xmlns:xlink="http://www.w3.org/1999/xlink" version="1.1" x="0px" y="0px" viewBox="0 0 100 125" style="enable-background:new 0 0 100 100;" xml:space="preserve"><path d="M67.9,69.9"/><path d="M89.8,63.9l-19.2,5.4l0,0.1c0.5,1.9,0.2,4-0.8,5.7c-1,1.9-2.7,3.2-4.8,3.8c-2,0.6-4.2,0.3-6.1-0.7L48,72l1-1.9l11.1,6.2  c1.4,0.8,2.9,0.9,4.4,0.5c1.5-0.4,2.7-1.4,3.5-2.8c0.4-0.7,0.6-1.5,0.7-2.3c0.3-1.9-0.6-3.9-2.3-4.8L39.5,52c0,0-2.8-1.9-6.6-0.8  c0,0,0,0-0.1,0C32.2,51.4,3.3,59.6,2.1,60l-0.1,0l5.9,20.7l19.3-5.5c2,1.2,16.7,10.3,18.5,11.4c3.3,1.9,7.3,0.9,8.2,0.6  C54,87.2,93.2,76,93.2,76c2.7-0.8,5-4.4,3.9-8.1C96.3,64.8,93,63,89.8,63.9z"/><path d="M70.7,11.2c-12.2,0-22.1,9.9-22.1,22.1s9.9,22.1,22.1,22.1s22.1-9.9,22.1-22.1S82.9,11.2,70.7,11.2z M62.3,45.3  c-1,0.9-1.5,2.2-1.7,3.4c-2.3-1.5-4.2-3.5-5.7-5.9c1.2-0.3,2.7-1.2,4.5-2.8c1.9-1.7,2.8-3.3,2.4-4.8c-0.5-2.1-2.9-2.9-3-2.9  c-0.1,0-0.3-0.1-0.4-0.2c0.1-0.2,0.5-0.7,1.8-1.5c1.8-1.1,2.7-2.5,2.8-4c0.1-2.7-2.6-4.8-2.6-4.8l-2.2-1.9C61.6,16.7,66,15,70.7,15  c1.4,0,2.7,0.2,4.1,0.5c-0.8,0.3-1.4,0.7-1.9,1.2c-1,1-1.4,2.4-1.2,4c0.3,1.8,1.1,3,2.4,3.8c0.6,0.3,1.2,0.5,1.9,0.6  c-3.6,0.7-8.7,2.3-8.5,5.8c0,1,0.4,1.8,1.2,2.5c2.7,2.4,9.3,1.9,10.6,1.8l0.1,0c0,0,2.7-0.6,3.5,1.2c1,2.6,3.6,3.2,5.2,3.2  c-1.3,3.6-3.7,6.7-6.8,8.9c-0.5-1.3-1.1-2-2.1-2.3c-0.4-0.1-0.9-0.1-1.4,0c-0.2-1.6-0.7-2.7-1.5-3.3c-0.6-0.5-1.4-0.7-2.3-0.5  c-1.3,0.2-2.8,1-3.5,3.6c-1.5-1.1-3.2-1.5-3.5-1.5C65,44,63.5,44.3,62.3,45.3z"/><text x="0" y="115" fill="#000000" font-size="5px" font-weight="bold" font-family="'Helvetica Neue', Helvetica, Arial-Unicode, Arial, Sans-serif">Created by Aneeque Ahmed</text><text x="0" y="120" fill="#000000" font-size="5px" font-weight="bold" font-family="'Helvetica Neue', Helvetica, Arial-Unicode, Arial, Sans-serif">from the Noun Project</text></svg>