<svg xmlns="http://www.w3.org/2000/svg" xmlns:xlink="http://www.w3.org/1999/xlink" version="1.1" x="0px" y="0px" viewBox="0 0 100 125" enable-background="new 0 0 100 100" xml:space="preserve"><g><path d="M40.565,63.564H28.806c-2.109,0-3.823-1.71-3.823-3.823c0-2.109,1.714-3.819,3.823-3.819h11.759   c2.11,0,3.823,1.71,3.823,3.819C44.389,61.854,42.675,63.564,40.565,63.564L40.565,63.564z"/><path d="M40.565,72.959H27.04c-2.112,0-3.822-1.711-3.822-3.826c0-2.105,1.71-3.818,3.822-3.818h13.526   c2.11,0,3.823,1.713,3.823,3.818C44.389,71.248,42.675,72.959,40.565,72.959L40.565,72.959z"/><path d="M40.565,82.352h-8.228c-2.111,0-3.823-1.71-3.823-3.822c0-2.11,1.712-3.821,3.823-3.821h8.228   c2.11,0,3.823,1.711,3.823,3.821C44.389,80.642,42.675,82.352,40.565,82.352L40.565,82.352z"/><path d="M66.279,55.087l-8.223-9.275c-0.396-0.444-0.887-0.787-1.439-1.004c-11.934-4.682-11.932-4.678-13.489-3.612l-9.846,6.355   c-1.744,1.126-2.245,3.451-1.121,5.197c1.125,1.74,3.453,2.241,5.194,1.115l5.933-3.828c1.089,5.894,3.726,15.29,9.71,18.512   c7.42,3.995,12.05,2.087,12.05,2.087v2.132c0,0-4.837,0.964-9.259-0.568c-5.513-1.903-9.578-6.192-9.578-6.192V82.41h10.802   c0,0,3.159-0.204,5.516-1.497c2.108-1.159,3.335-3.728,3.335-3.728h25.433V55.087H66.279L66.279,55.087z"/></g><path d="M35.16,84.403v11.663c0,2.03,1.644,3.677,3.674,3.677s3.676-1.646,3.676-3.677V84.403H35.16z"/><path d="M45.571,0.274v20.464c0,0.696-0.565,1.261-1.261,1.261s-1.26-0.565-1.26-1.261V0.274h-2.945v20.464  c0,0.696-0.564,1.261-1.261,1.261s-1.261-0.565-1.261-1.261V0.274h-2.945v20.464c0,0.696-0.564,1.261-1.26,1.261  c-0.697,0-1.261-0.565-1.261-1.261V0.274h-3.005v27.191c0,2.833,2.296,5.128,5.128,5.128h0.918V43.5l7.351-4.571v-6.335h1.063  c2.833,0,5.128-2.296,5.128-5.128V0.274H45.571z"/><text x="0" y="115" fill="#000000" font-size="5px" font-weight="bold" font-family="'Helvetica Neue', Helvetica, Arial-Unicode, Arial, Sans-serif">Created by Luis Prado</text><text x="0" y="120" fill="#000000" font-size="5px" font-weight="bold" font-family="'Helvetica Neue', Helvetica, Arial-Unicode, Arial, Sans-serif">from the Noun Project</text></svg>